<mxfile host="app.diagrams.net" agent="Mozilla/5.0 (Windows NT 10.0; Win64; x64) AppleWebKit/537.36 (KHTML, like Gecko) Chrome/127.0.0.0 Safari/537.36" version="24.7.6">
  <diagram name="‫עמוד-1‬" id="NKJsurIGzYPwxP_YeIti">
    <mxGraphModel dx="1877" dy="565" grid="1" gridSize="10" guides="1" tooltips="1" connect="1" arrows="1" fold="1" page="1" pageScale="1" pageWidth="827" pageHeight="1169" math="0" shadow="0">
      <root>
        <mxCell id="0" />
        <mxCell id="1" parent="0" />
        <mxCell id="nAGzG53C5Sj12kFKgatB-3" style="edgeStyle=orthogonalEdgeStyle;rounded=0;orthogonalLoop=1;jettySize=auto;html=1;exitX=1;exitY=1;exitDx=0;exitDy=0;" edge="1" parent="1">
          <mxGeometry relative="1" as="geometry">
            <mxPoint x="720" y="560" as="targetPoint" />
            <mxPoint x="720" y="560" as="sourcePoint" />
          </mxGeometry>
        </mxCell>
        <mxCell id="nAGzG53C5Sj12kFKgatB-10" value="AWS Cloud" style="sketch=0;outlineConnect=0;gradientColor=none;html=1;whiteSpace=wrap;fontSize=12;fontStyle=0;shape=mxgraph.aws4.group;grIcon=mxgraph.aws4.group_aws_cloud;strokeColor=#AAB7B8;fillColor=none;verticalAlign=top;align=left;spacingLeft=30;fontColor=#AAB7B8;dashed=0;" vertex="1" parent="1">
          <mxGeometry x="-310" y="80" width="720" height="480" as="geometry" />
        </mxCell>
        <mxCell id="nAGzG53C5Sj12kFKgatB-11" value="" style="rounded=1;arcSize=10;dashed=0;fillColor=none;gradientColor=none;strokeWidth=2;" vertex="1" parent="1">
          <mxGeometry x="-270" y="120" width="610" height="400" as="geometry" />
        </mxCell>
        <mxCell id="nAGzG53C5Sj12kFKgatB-12" value="" style="dashed=0;html=1;shape=mxgraph.aws3.virtual_private_cloud;fillColor=#F58536;gradientColor=none;dashed=0;" vertex="1" parent="1">
          <mxGeometry x="-250" y="124" width="52" height="36" as="geometry" />
        </mxCell>
        <mxCell id="nAGzG53C5Sj12kFKgatB-13" value="Public subnet" style="points=[[0,0],[0.25,0],[0.5,0],[0.75,0],[1,0],[1,0.25],[1,0.5],[1,0.75],[1,1],[0.75,1],[0.5,1],[0.25,1],[0,1],[0,0.75],[0,0.5],[0,0.25]];outlineConnect=0;gradientColor=none;html=1;whiteSpace=wrap;fontSize=12;fontStyle=0;container=1;pointerEvents=0;collapsible=0;recursiveResize=0;shape=mxgraph.aws4.group;grIcon=mxgraph.aws4.group_security_group;grStroke=0;strokeColor=#7AA116;fillColor=#F2F6E8;verticalAlign=top;align=left;spacingLeft=30;fontColor=#248814;dashed=0;" vertex="1" parent="1">
          <mxGeometry x="40" y="230" width="200" height="210" as="geometry" />
        </mxCell>
        <mxCell id="nAGzG53C5Sj12kFKgatB-21" value="" style="outlineConnect=0;dashed=0;verticalLabelPosition=bottom;verticalAlign=top;align=center;html=1;shape=mxgraph.aws3.instance;fillColor=#F58534;gradientColor=none;" vertex="1" parent="nAGzG53C5Sj12kFKgatB-13">
          <mxGeometry x="70" y="33.5" width="60" height="63" as="geometry" />
        </mxCell>
        <mxCell id="nAGzG53C5Sj12kFKgatB-32" value="public&lt;div&gt;&amp;nbsp;bastion&lt;/div&gt;" style="text;html=1;align=center;verticalAlign=middle;resizable=0;points=[];autosize=1;strokeColor=none;fillColor=none;" vertex="1" parent="nAGzG53C5Sj12kFKgatB-13">
          <mxGeometry x="65" y="45" width="70" height="40" as="geometry" />
        </mxCell>
        <mxCell id="nAGzG53C5Sj12kFKgatB-15" value="Private subnet" style="points=[[0,0],[0.25,0],[0.5,0],[0.75,0],[1,0],[1,0.25],[1,0.5],[1,0.75],[1,1],[0.75,1],[0.5,1],[0.25,1],[0,1],[0,0.75],[0,0.5],[0,0.25]];outlineConnect=0;gradientColor=none;html=1;whiteSpace=wrap;fontSize=12;fontStyle=0;container=1;pointerEvents=0;collapsible=0;recursiveResize=0;shape=mxgraph.aws4.group;grIcon=mxgraph.aws4.group_security_group;grStroke=0;strokeColor=#00A4A6;fillColor=#E6F6F7;verticalAlign=top;align=left;spacingLeft=30;fontColor=#147EBA;dashed=0;" vertex="1" parent="1">
          <mxGeometry x="-220" y="230" width="210" height="210" as="geometry" />
        </mxCell>
        <mxCell id="nAGzG53C5Sj12kFKgatB-20" value="" style="outlineConnect=0;dashed=0;verticalLabelPosition=bottom;verticalAlign=top;align=center;html=1;shape=mxgraph.aws3.instance;fillColor=#F58534;gradientColor=none;" vertex="1" parent="nAGzG53C5Sj12kFKgatB-15">
          <mxGeometry x="75" y="41" width="60" height="63" as="geometry" />
        </mxCell>
        <mxCell id="nAGzG53C5Sj12kFKgatB-31" value="Nginx&lt;br&gt;private&lt;br&gt;instance" style="text;html=1;align=center;verticalAlign=middle;resizable=0;points=[];autosize=1;strokeColor=none;fillColor=none;" vertex="1" parent="nAGzG53C5Sj12kFKgatB-15">
          <mxGeometry x="70" y="36" width="70" height="60" as="geometry" />
        </mxCell>
        <mxCell id="nAGzG53C5Sj12kFKgatB-28" style="edgeStyle=orthogonalEdgeStyle;rounded=0;orthogonalLoop=1;jettySize=auto;html=1;" edge="1" parent="1" source="nAGzG53C5Sj12kFKgatB-16" target="nAGzG53C5Sj12kFKgatB-17">
          <mxGeometry relative="1" as="geometry" />
        </mxCell>
        <mxCell id="nAGzG53C5Sj12kFKgatB-29" style="edgeStyle=orthogonalEdgeStyle;rounded=0;orthogonalLoop=1;jettySize=auto;html=1;" edge="1" parent="1" source="nAGzG53C5Sj12kFKgatB-16" target="nAGzG53C5Sj12kFKgatB-21">
          <mxGeometry relative="1" as="geometry" />
        </mxCell>
        <mxCell id="nAGzG53C5Sj12kFKgatB-16" value="" style="sketch=0;outlineConnect=0;fontColor=#232F3E;gradientColor=none;fillColor=#8C4FFF;strokeColor=none;dashed=0;verticalLabelPosition=bottom;verticalAlign=top;align=center;html=1;fontSize=12;fontStyle=0;aspect=fixed;pointerEvents=1;shape=mxgraph.aws4.internet_gateway;" vertex="1" parent="1">
          <mxGeometry x="300" y="281" width="78" height="78" as="geometry" />
        </mxCell>
        <mxCell id="nAGzG53C5Sj12kFKgatB-27" style="edgeStyle=orthogonalEdgeStyle;rounded=0;orthogonalLoop=1;jettySize=auto;html=1;" edge="1" parent="1" source="nAGzG53C5Sj12kFKgatB-18" target="nAGzG53C5Sj12kFKgatB-16">
          <mxGeometry relative="1" as="geometry" />
        </mxCell>
        <mxCell id="nAGzG53C5Sj12kFKgatB-18" value="" style="outlineConnect=0;dashed=0;verticalLabelPosition=bottom;verticalAlign=top;align=center;html=1;shape=mxgraph.aws3.internet_3;fillColor=#D2D3D3;gradientColor=none;" vertex="1" parent="1">
          <mxGeometry x="490" y="296" width="79.5" height="54" as="geometry" />
        </mxCell>
        <mxCell id="nAGzG53C5Sj12kFKgatB-19" style="edgeStyle=orthogonalEdgeStyle;rounded=0;orthogonalLoop=1;jettySize=auto;html=1;exitX=0.5;exitY=1;exitDx=0;exitDy=0;exitPerimeter=0;entryX=0.512;entryY=0.739;entryDx=0;entryDy=0;entryPerimeter=0;" edge="1" parent="1" source="nAGzG53C5Sj12kFKgatB-12" target="nAGzG53C5Sj12kFKgatB-12">
          <mxGeometry relative="1" as="geometry" />
        </mxCell>
        <mxCell id="nAGzG53C5Sj12kFKgatB-17" value="" style="sketch=0;outlineConnect=0;fontColor=#232F3E;gradientColor=none;fillColor=#8C4FFF;strokeColor=none;dashed=0;verticalLabelPosition=bottom;verticalAlign=top;align=center;html=1;fontSize=12;fontStyle=0;aspect=fixed;pointerEvents=1;shape=mxgraph.aws4.nat_gateway;" vertex="1" parent="1">
          <mxGeometry x="101" y="350" width="78" height="78" as="geometry" />
        </mxCell>
        <mxCell id="nAGzG53C5Sj12kFKgatB-30" style="edgeStyle=orthogonalEdgeStyle;rounded=0;orthogonalLoop=1;jettySize=auto;html=1;entryX=0.5;entryY=1;entryDx=0;entryDy=0;entryPerimeter=0;" edge="1" parent="1" source="nAGzG53C5Sj12kFKgatB-17" target="nAGzG53C5Sj12kFKgatB-20">
          <mxGeometry relative="1" as="geometry" />
        </mxCell>
        <mxCell id="nAGzG53C5Sj12kFKgatB-33" value="NAT GW" style="text;html=1;align=center;verticalAlign=middle;resizable=0;points=[];autosize=1;strokeColor=none;fillColor=none;" vertex="1" parent="1">
          <mxGeometry x="105" y="428" width="70" height="30" as="geometry" />
        </mxCell>
        <mxCell id="nAGzG53C5Sj12kFKgatB-34" value="Internet&lt;br&gt;Gateway" style="text;html=1;align=center;verticalAlign=middle;resizable=0;points=[];autosize=1;strokeColor=none;fillColor=none;" vertex="1" parent="1">
          <mxGeometry x="330" y="359" width="70" height="40" as="geometry" />
        </mxCell>
        <mxCell id="nAGzG53C5Sj12kFKgatB-35" value="I&lt;span style=&quot;background-color: initial;&quot;&gt;nternet&lt;/span&gt;" style="text;html=1;align=center;verticalAlign=middle;resizable=0;points=[];autosize=1;strokeColor=none;fillColor=none;" vertex="1" parent="1">
          <mxGeometry x="499.75" y="350" width="60" height="30" as="geometry" />
        </mxCell>
      </root>
    </mxGraphModel>
  </diagram>
</mxfile>
